# xmcd
#
# Track frame offsets:
#	150
#	23906
#	39979
#	59627
#	85566
#	107853
#	125197
#	140785
#	156914
#	170862
#	192034
#	208970
#	226160
#	249861
#	270708
#	291440
#	310664
#	333620
#
# Disc length: 4781 seconds
#
# Revision: 0
# Processed by: cddbd v1.5.2PL0 Copyright (c) Steve Scherf et al.
# Submitted via: EasyCDDAExtractor 7.1.2.1
#
DISCID=1212ab12
DTITLE=MLADEN VOJICIC-TIFA - THE BEST
DYEAR=2005
DGENRE=POP
TTITLE0=GRBAVICA
TTITLE1=JAVI SE
TTITLE2=JER TUGA ZNA
TTITLE3=DANI BEZ TEBE
TTITLE4=DUGE KISE JESENJE
TTITLE5=SAMO VRAG I BOG ZNA
TTITLE6=CURA KAO TI
TTITLE7=STIPU GATIBO
TTITLE8=VJERUJE, NE VJERUJEM
TTITLE9=PADAJU ZVIJEZDE
TTITLE10=EVO IMA GODINA
TTITLE11=VODA DO KOLJENA
TTITLE12=DA TE BOGDO
TTITLE13=ZAUVJEK TVOJ
TTITLE14=BARABA
TTITLE15=ZA ESMU
TTITLE16=NIJE TO LJUBAV
TTITLE17=MAMURNO JUTRO
EXTD=
EXTT0=
EXTT1=
EXTT2=
EXTT3=
EXTT4=
EXTT5=
EXTT6=
EXTT7=
EXTT8=
EXTT9=
EXTT10=
EXTT11=
EXTT12=
EXTT13=
EXTT14=
EXTT15=
EXTT16=
EXTT17=
PLAYORDER=
